# xmcd
#
# Track frame offsets: 
#        150
#        25800
#        52125
#        88950
#        124989
#        154689
#        182739
#        206514
#
# Disc length: 3249 seconds
#
# Revision: 0
# Processed by: cddbd v1.5.2PL0 Copyright (c) Steve Scherf et al.
# Submitted via: ExactAudioCopy v1.3
#
DISCID=6e0caf08
DTITLE=Trio Works - Gunsan Gaka
DYEAR=2019
DGENRE=Blues
TTITLE0=Gunsan Gaka
TTITLE1=Wind
TTITLE2=Blues Five
TTITLE3=Uncle Peter
TTITLE4=Moon Blues
TTITLE5=Memories
TTITLE6=Organ Ruch
TTITLE7=Somori
EXTD=
EXTT0=
EXTT1=
EXTT2=
EXTT3=
EXTT4=
EXTT5=
EXTT6=
EXTT7=
PLAYORDER=
